<?xml version="1.0" encoding="utf-8"?>
<svg xmlns="http://www.w3.org/2000/svg" xmlns:xlink="http://www.w3.org/1999/xlink" style="margin: auto; background: none; display: block; shape-rendering: auto;" width="200px" height="200px" viewBox="0 0 100 100" preserveAspectRatio="xMidYMid">
<g transform="translate(50 50)">
<g>
<animateTransform attributeName="transform" type="rotate" values="0;45" keyTimes="0;1" dur="0.5319148936170213s" repeatCount="indefinite"></animateTransform><path d="M19.22888452302941 -5.5 L27.22888452302941 -5.5 L27.22888452302941 5.5 L19.22888452302941 5.5 A20 20 0 0 1 17.48596193741316 9.707787344361135 L17.48596193741316 9.707787344361135 L23.142816186905538 15.364641593853515 L15.364641593853516 23.142816186905538 L9.707787344361137 17.48596193741316 A20 20 0 0 1 5.500000000000002 19.22888452302941 L5.500000000000002 19.22888452302941 L5.500000000000003 27.22888452302941 L-5.499999999999998 27.22888452302941 L-5.499999999999999 19.22888452302941 A20 20 0 0 1 -9.707787344361131 17.485961937413162 L-9.707787344361131 17.485961937413162 L-15.364641593853511 23.14281618690554 L-23.14281618690554 15.364641593853513 L-17.485961937413162 9.707787344361133 A20 20 0 0 1 -19.228884523029407 5.500000000000007 L-19.228884523029407 5.500000000000007 L-27.228884523029407 5.500000000000008 L-27.22888452302941 -5.500000000000002 L-19.22888452302941 -5.500000000000003 A20 20 0 0 1 -17.485961937413165 -9.70778734436113 L-17.485961937413165 -9.70778734436113 L-23.14281618690555 -15.36464159385351 L-15.364641593853516 -23.142816186905538 L-9.707787344361135 -17.48596193741316 A20 20 0 0 1 -5.500000000000008 -19.228884523029407 L-5.500000000000008 -19.228884523029407 L-5.50000000000001 -27.228884523029407 L5.499999999999998 -27.22888452302941 L5.5 -19.22888452302941 A20 20 0 0 1 9.707787344361128 -17.485961937413165 L9.707787344361128 -17.485961937413165 L15.364641593853506 -23.14281618690555 L23.142816186905538 -15.364641593853518 L17.48596193741316 -9.707787344361137 A20 20 0 0 1 19.228884523029407 -5.500000000000009 M0 -11A11 11 0 1 0 0 11 A11 11 0 1 0 0 -11" fill="#7bc1ec"></path></g></g>
<!-- [ldio] generated by https://loading.io/ --></svg>